<?xml version="1.0" standalone="no"?><!-- Generator: Gravit.io --><svg xmlns="http://www.w3.org/2000/svg" xmlns:xlink="http://www.w3.org/1999/xlink" style="isolation:isolate" viewBox="0 0 410 410" width="410" height="410"><defs><clipPath id="_clipPath_WnqQLcC4bcIflnLwyVqOXY9ulD0iRug6"><rect width="410" height="410"/></clipPath></defs><g clip-path="url(#_clipPath_WnqQLcC4bcIflnLwyVqOXY9ulD0iRug6)"><path d=" M 0 205 C 0 91.857 91.857 0 205 0 C 318.143 0 410 91.857 410 205 C 410 318.143 318.143 410 205 410 C 91.857 410 0 318.143 0 205 Z " fill="rgb(78,0,130)"/><path d=" M 101.505 89 Q 79.63 75.875 62.505 88 C 38.802 104.783 62.981 202.02 4.505 211 Q 48.18 249.33 72.505 176 Q 46.694 233.66 18 212 Q 56.335 189.045 55 132.089 Q 53.673 75.495 101.505 89 Z " fill="rgb(255,255,255)"/><path d=" M 92.505 247 Q 107.188 303.737 64.505 322 Q 79.371 299.084 49.505 276 Q 19.639 252.916 32.505 224 L 32.505 224 Q 32.839 249.358 43 261 C 54.525 274.205 79.691 279.039 75.505 307.849 Q 92.821 302.472 92.505 247 Z " fill="rgb(255,255,255)"/><path d=" M 134.505 274 Q 142.225 305.73 113.505 327 Q 118.89 313.341 107 307.114 Q 95.11 300.887 93.505 288 L 94.505 285 Q 100.244 298.208 110.505 304 Q 120.908 309.872 120 317.074 Q 133.277 303.228 134.505 274 Z " fill="rgb(255,255,255)"/><path d=" M 185.505 305 Q 180.26 291.412 158.505 286 C 136.75 280.588 100.124 257.628 78.505 211 Q 105.191 252.755 142 270 C 169.977 283.107 180.38 279.772 182.747 292 Q 190.256 282.721 182.505 261 Q 196.256 282.596 185.505 305 Z " fill="rgb(255,255,255)"/><path d=" M 77.505 145 Q 58.838 207.963 105.505 244 C 152.172 280.037 175.732 268.604 183.505 260 C 191.278 251.396 189.213 227.565 179.505 218 Q 194.924 248.14 172.964 257 C 145.346 268.142 104.207 245.307 82 207 Q 67.956 182.775 77.505 145 Z " fill="rgb(255,255,255)"/><path d=" M 152.177 200 Q 97.935 187.574 82.505 160 Q 67.076 132.426 94.505 105 Q 101.145 142.241 154.505 157 Q 104.674 155.074 92.505 117 Q 77.524 131.611 90 156 Q 104.731 184.797 152.177 200 Z " fill="rgb(255,255,255)"/><path d=" M 180.505 157 Q 211.051 148.391 203.505 117 C 195.96 85.609 99.352 60.499 94.505 105 Q 101.663 83.984 142 89 C 182.337 94.016 195.873 112.181 197 127.714 Q 198.456 147.788 180.505 157 Z " fill="rgb(255,255,255)"/><path d=" M 185.177 218.996 Q 156.597 219.32 147.177 192.996 C 137.756 166.673 149.171 148.335 170.177 151.996 Q 191.182 155.657 190.177 183.996 Q 181.42 149.908 160.156 160.739 C 147.446 167.213 150.009 175.677 152.177 187 C 154.344 198.323 160.995 215.69 185.177 218.996 Z " fill="rgb(255,255,255)"/><path d=" M 203.505 129 Q 267.019 124.688 242.505 71 C 217.991 17.312 117.098 41.845 98.505 94 Q 127.397 56.106 178 52 C 228.603 47.894 234.293 69.348 238 81 C 241.707 92.652 245.311 114.716 203.505 129 Z " fill="rgb(255,255,255)"/><path d=" M 186.505 298 Q 193.502 323.752 185.505 341 Q 227.783 386.248 244.505 356 Q 232.365 335.69 235.505 298 Q 227.641 333.576 239 355 Q 222.883 368.966 195 340 Q 195.604 317.819 186.505 298 Z " fill="rgb(255,255,255)"/><path d=" M 244.158 111.012 Q 305.941 123.297 289.505 67 C 273.07 10.703 181.118 22.305 147.505 49 Q 191.16 32.614 229.505 36 C 267.851 39.386 279.013 57.682 282.505 82 Q 287.343 115.684 244.158 111.012 Z " fill="rgb(255,255,255)"/><path d=" M 362.126 156 L 375 210 Q 378.341 267.892 315 288 C 251.659 308.108 216.575 299.112 217.505 299.424 C 332.577 290.489 382.173 253.589 367.505 194 L 361.09 156 L 362.126 156 Z " fill="rgb(255,255,255)"/><path d=" M 360.822 149.327 L 354.505 117 L 359.958 149.297 L 360.822 149.327 Z " fill="rgb(255,255,255)"/><path d=" M 287.505 101 Q 306.149 121.361 330.505 105 C 354.862 88.639 332.255 27.5 242.505 30 Q 277.069 29.813 312.505 56 C 339.307 75.806 337.265 99.894 315 103.782 Q 299.832 106.43 287.505 101 Z " fill="rgb(255,255,255)"/><path d=" M 319.505 207 Q 326.023 223.708 332 228 Q 321.517 233.055 314.505 233 Q 320.603 231.612 326.505 227 Q 321.954 223.152 319.505 207 Z " fill="rgb(255,255,255)"/><path d=" M 327.505 106 Q 330.456 122.323 350.505 119 C 370.555 115.677 365.114 82.668 325.505 56 Q 345.57 77.772 352.141 90 C 357.002 99.046 359.261 110.366 350 114 Q 334.243 120.183 327.505 106 Z " fill="rgb(255,255,255)"/><path d=" M 224.738 182.753 C 225.924 201.296 226.505 213.628 226.505 220 Q 226.505 228.625 241.505 228 Q 265.714 226.471 278.505 226 C 302.255 225.125 303.755 169.125 302.505 157 Q 299.674 148.936 227.505 164 Q 300.255 145.875 304.505 156 Q 304.501 218.695 282.505 227 Q 242.667 230.148 233.505 230 Q 224.344 229.852 224.505 218 L 224.505 182.8 L 224.738 182.753 Z " fill="rgb(255,255,255)"/><path d=" M 187.505 170 L 227.505 156 L 230.505 183 L 213.505 184 Q 210.015 184.188 208.505 183 C 206.731 181.605 203.319 175.446 190.177 180 Q 198.277 172.668 204.505 176 C 208.786 178.29 208.698 180.134 212.505 180 Q 217.265 179.833 227.505 179 L 224.505 161 L 187.505 170 Z " fill="rgb(255,255,255)"/><path d=" M 192.505 179 L 228.505 172 L 228.505 171 L 192.505 179 Z " fill="rgb(255,255,255)"/><path d=" M 217.505 162 L 220.505 183 L 221.505 183 L 218.505 162 L 217.505 162 Z " fill="rgb(255,255,255)"/><path d=" M 222.847 160.739 L 222.505 156 Q 262.63 145.188 302.505 146 Q 306.63 146.313 308.505 150 Q 309.7 152.349 307.505 178 C 312.505 177 317.515 177.343 322.505 179 C 319.908 163.695 318.918 157.039 319.505 155 C 320.062 150.709 363.998 146.828 379.505 152 Q 385.856 159.688 383 178 L 378.505 179 L 385 179 L 386 162 Q 385.043 150.237 381.05 148 C 376.077 145.214 316.281 144.66 315.556 151 Q 316.107 152.481 319.505 175 C 315.468 173.991 314.689 171.667 310.05 172 L 311.05 149 Q 308.431 142.688 300.556 142 C 295.406 141.55 254.672 140.833 218.505 152 L 220.043 160.823 L 222.847 160.739 Z " fill="rgb(255,255,255)"/><path d=" M 378.473 162.443 C 378.484 161.633 377.904 159.937 376.505 159 Q 378.155 159.645 378.556 161.605 C 379.549 194.37 380.199 213.171 376.505 220 Q 362.945 225.404 345 223 C 336.443 221.854 320.247 196.232 324 159 C 324.347 155.557 343.329 152.009 372.191 157.165 C 373.602 157.418 376.068 158.281 376.505 159 Q 374.983 157.847 373.506 157.706 C 344.498 154.953 328.83 156.051 326.505 161 C 322.899 168.676 328.705 220.638 350.505 222 C 361.254 222.671 369.782 220.65 373.505 218 C 377.767 214.967 378.063 192.762 378.473 162.443 Z " fill="rgb(255,255,255)"/><path d=" M 376.505 159 C 374.527 157.913 370.75 157.483 367.505 157 Q 378.599 157.171 378.505 162 Q 378.53 160.112 376.505 159 Z " fill="rgb(255,255,255)"/><path d=" M 94.505 106 Q 86.365 99.953 72.505 113 C 65.948 119.173 57.505 137.667 57.505 168 C 57.505 198.333 40.5 208.875 17 213 Q 46 215 56 191 C 66 167 59 161.5 64 142 C 69 122.5 85.493 101.114 94.505 106 Z " fill="rgb(255,255,255)"/><path d=" M 75.505 200 Q 54.077 225.939 66 256 C 77.923 286.061 78.842 308.968 67.505 319 Q 80.679 310.005 77.505 283 C 74.332 255.995 63.428 246.865 66.505 228 Q 69.73 208.236 75.505 200 Z " fill="rgb(255,255,255)"/><path d=" M 103.505 249 Q 101.364 267.293 112 284 Q 122.636 300.707 120 320 Q 128.818 300.625 116.505 281 Q 109.184 269.331 103.505 249 Z " fill="rgb(255,255,255)"/><path d=" M 302.505 184 Q 315.08 177.668 326.505 184 L 326.505 184 Q 314.005 181.5 302.505 184 L 302.505 184 Z " fill="rgb(255,255,255)"/><path d=" M 282.505 247 Q 289.892 279.321 322.505 264 Q 296.505 269.75 282.505 247 Z " fill="rgb(255,255,255)"/><path d=" M 231.549 408.293 C 229.972 408.498 228.39 408.684 226.8 408.843 C 207.9 379.427 187.556 362.031 169.505 344 L 188.505 340 L 178 345 Q 216.395 379.012 231.549 408.293 Z  M 245.994 405.893 C 244.985 406.098 243.972 406.296 242.956 406.483 C 245.086 391.058 246.17 380.889 251 363.003 L 242.505 357 L 242.505 355 L 257.505 363.003 Q 250.702 388.057 245.994 405.893 Z " fill="rgb(255,255,255)"/><path d=" M 275.276 397.618 C 273.703 398.193 272.121 398.749 270.531 399.286 L 262 383 L 263.505 378 L 275.276 397.618 Z " fill="rgb(255,255,255)"/><path d=" M 169.857 406.994 C 168.558 406.769 167.262 406.532 165.971 406.283 Q 164.711 395.976 163 385 C 163.102 385.881 167.407 382.126 167.505 383 Q 168.91 395.434 169.857 406.994 Z " fill="rgb(255,255,255)"/><path d=" M 221.845 409.308 C 220.724 409.408 219.599 409.49 218.471 409.564 Q 186.625 377.127 157.505 357 Q 140.58 377.672 127.052 394.637 C 125.664 394.066 124.284 393.479 122.911 392.878 Q 138.028 373.726 157.505 350 C 175.384 363.008 195.493 380.748 221.845 409.308 Z " fill="rgb(255,255,255)"/><path d=" M 148.493 361.349 C 154.497 340.68 168.46 331.013 190.177 326.437 L 190.177 325.744 C 162.298 327.437 145.878 339.145 147.253 363.003 L 148.493 361.349 Z " fill="rgb(255,255,255)"/><path d=" M 254.343 404.011 C 252.842 404.384 251.334 404.739 249.818 405.072 C 255.66 392.028 263.296 376.524 269.505 369 C 279.834 356.483 261.69 339.73 235.505 331.508 L 235.505 330.31 C 270.145 333.877 283.685 362.606 279 367 C 272.246 373.335 262.27 389.811 254.343 404.011 Z " fill="rgb(255,255,255)"/><path d=" M 285.387 393.604 C 284.276 394.089 283.156 394.555 282.032 395.012 Q 276.834 383.114 271 370 Q 272.828 364.449 273.505 366 C 277.727 375.661 281.7 384.884 285.387 393.604 Z " fill="rgb(255,255,255)"/><path d=" M 252.505 192.55 C 252.505 174.554 262.067 159.943 273.844 159.943 C 285.62 159.943 295.182 174.554 295.182 192.55 C 295.182 210.547 285.62 225.158 273.844 225.158 C 262.067 225.158 252.505 210.547 252.505 192.55 Z " fill="none" vector-effect="non-scaling-stroke" stroke-width="1.5" stroke="rgb(255,255,255)" stroke-linejoin="miter" stroke-linecap="square" stroke-miterlimit="3"/><path d=" M 259.96 199.629 C 259.96 186.874 267.496 176.519 276.779 176.519 C 286.061 176.519 293.597 186.874 293.597 199.629 C 293.597 212.384 286.061 222.74 276.779 222.74 C 267.496 222.74 259.96 212.384 259.96 199.629 Z " fill="none" vector-effect="non-scaling-stroke" stroke-width="1.5" stroke="rgb(255,255,255)" stroke-linejoin="miter" stroke-linecap="square" stroke-miterlimit="3"/><path d=" M 335.167 190.085 C 335.167 172.929 342.412 159 351.336 159 C 360.26 159 367.505 172.929 367.505 190.085 C 367.505 207.241 360.26 221.17 351.336 221.17 C 342.412 221.17 335.167 207.241 335.167 190.085 Z " fill="none" vector-effect="non-scaling-stroke" stroke-width="1.5" stroke="rgb(255,255,255)" stroke-linejoin="miter" stroke-linecap="square" stroke-miterlimit="3"/><path d=" M 340.816 197.031 C 340.816 184.872 346.527 175 353.56 175 C 360.594 175 366.305 184.872 366.305 197.031 C 366.305 209.191 360.594 219.063 353.56 219.063 C 346.527 219.063 340.816 209.191 340.816 197.031 Z " fill="none" vector-effect="non-scaling-stroke" stroke-width="1.5" stroke="rgb(255,255,255)" stroke-linejoin="miter" stroke-linecap="square" stroke-miterlimit="3"/><path d=" M 257.505 171 Q 248.862 175.258 242.505 168 Q 247.761 177.301 255.505 175 L 257.505 171 Z " fill="rgb(255,255,255)"/><path d=" M 255.706 175 Q 248.772 181.69 240.505 176.716 Q 248.347 183.972 255.021 179.419 L 255.706 175 Z " fill="rgb(255,255,255)"/><path d=" M 362.505 169.272 Q 369.668 173.529 374.936 166.272 Q 370.58 175.573 364.163 173.272 L 362.505 169.272 Z " fill="rgb(255,255,255)"/><path d=" M 364.909 173.432 Q 370.655 180.122 377.505 175.147 Q 371.007 182.404 365.477 177.851 L 364.909 173.432 Z " fill="rgb(255,255,255)"/><path d=" M 290.753 145.432 C 290.696 145.331 290.603 145.17 290.505 145 C 286.137 137.428 271.605 138.894 246.885 149.42 C 264.23 146.634 278.873 145.324 290.753 145.432 Z " fill="rgb(255,255,255)"/><path d=" M 360.326 149.282 C 349.758 148.911 340.782 149.361 333.411 150.588 C 333.437 150.482 333.481 150.312 333.528 150.133 C 335.352 143.082 344.09 142.108 359.826 147.284 L 360.326 149.282 L 360.326 149.282 Z " fill="rgb(255,255,255)"/><path d=" M 245.505 111 C 245.671 111.002 245.908 111.007 246.158 111.012 C 261.158 111.345 256.172 121.667 245.505 129 Q 234.839 136.333 242.505 147.284 C 228.839 133.902 242.561 130.948 251.505 122 C 257.301 116.202 249.437 113.269 244.453 111.902 L 245.505 111 Z " fill="rgb(255,255,255)"/><path d=" M 181.505 294 C 193.943 305.469 185.069 309.431 172.964 307.849 Q 162.446 306.095 160.156 317.074 C 160.51 301.181 170.107 307.32 180.626 307.114 C 187.442 306.98 184.751 300.691 182.747 297 Q 181.367 293.853 181.505 294 Z " fill="rgb(255,255,255)"/><path d=" M 330.058 103.782 Q 319.437 116.656 330.509 120.539 C 341.581 124.422 333.925 129.885 327.773 134.159 Q 341.392 130.004 336.211 121.758 C 333.842 117.986 326.297 121.431 326.026 113.617 Q 325.919 110.518 330.058 103.782 Z " fill="rgb(255,255,255)"/><path d=" M 354.183 117 C 358.434 119.66 359.035 123.233 355.996 127.714 C 349.413 137.426 358.817 137.257 366.305 137.028 Q 352.889 141.799 352.141 132.089 C 351.799 127.648 359.913 125.923 355.477 119.484 C 354.928 118.687 353.971 117.861 352.525 117 L 354.183 117 L 354.183 117 Z " fill="rgb(255,255,255)"/><path d=" M 186.83 298 Q 190.107 313.042 180.1 313.009 C 170.092 312.975 173.909 319.686 177.019 324.984 Q 168.112 317.612 175.243 312.351 C 178.505 309.944 182.321 314.335 185.505 308 Q 186.768 305.487 186.83 298 Z " fill="rgb(255,255,255)"/><path d=" M 354.59 116.681 Q 366.025 110.616 367.623 117.962 C 369.221 125.308 353.89 122.305 364.909 133 Q 358.192 130.385 360.127 125.287 C 362.062 120.188 367.889 122.353 366.856 118.056 Q 365.549 112.625 354.59 116.681 Z " fill="rgb(255,255,255)"/></g></svg>