<?xml version="1.0" standalone="no"?><!-- Generator: Gravit.io --><svg xmlns="http://www.w3.org/2000/svg" xmlns:xlink="http://www.w3.org/1999/xlink" style="isolation:isolate" viewBox="0 0 410 410" width="410" height="410"><defs><clipPath id="_clipPath_BkwttkUXITqV5zxf16zUBPQ1trDWcBNF"><rect width="410" height="410"/></clipPath></defs><g clip-path="url(#_clipPath_BkwttkUXITqV5zxf16zUBPQ1trDWcBNF)"><path d=" M 0 205 C 0 91.857 91.857 0 205 0 C 318.143 0 410 91.857 410 205 C 410 318.143 318.143 410 205 410 C 91.857 410 0 318.143 0 205 Z " fill="rgb(78,0,130)"/><path d=" M 342.577 149.14 C 351.879 149.339 359.577 149.968 361.146 150.847 Q 364.7 152.838 365.551 163.308 L 364.661 178.439 L 359.377 178.439 C 359.889 198.171 359.755 210.024 357.101 214.931 Q 356.454 215.189 355.795 215.427 Q 353.431 259.241 302.358 275.455 C 269.961 285.739 245.869 287.47 231.393 287.134 Q 230.41 301.656 232.077 313.164 C 262.558 316.551 274.464 341.878 270.316 345.769 C 269.366 346.659 268.346 347.775 267.262 349.106 C 270.087 355.586 279.524 377.333 286.385 393.182 C 261.432 404.002 233.911 410 205 410 C 172.923 410 142.556 402.617 115.509 389.458 Q 139.405 358.936 153.038 341.93 C 151.968 321.054 166.32 310.716 190.664 309.087 Q 191.512 300.228 189.264 289.613 L 188.985 289.436 Q 189.305 297.738 182.289 297.714 C 173.382 297.684 176.778 303.657 179.547 308.373 Q 171.619 301.811 177.966 297.128 C 180.87 294.986 184.266 298.895 187.1 293.256 Q 187.43 292.599 187.668 291.559 C 185.594 293.339 181.095 293.796 175.937 293.122 Q 166.576 291.561 164.538 301.332 C 164.853 287.186 173.395 292.651 182.757 292.467 C 185.596 292.412 186.582 291.156 186.645 289.5 Q 181.55 278.273 163.069 273.675 C 157.072 272.183 149.807 269.193 142.061 264.544 Q 147.874 291.758 123.016 310.167 Q 127.809 298.009 117.226 292.467 Q 107.792 287.526 105.633 277.875 Q 100.082 296.869 79.403 305.717 Q 92.635 285.32 66.053 264.774 Q 39.542 244.284 50.86 218.631 Q 39.463 218.736 26 206.921 C 78.047 198.928 56.526 112.381 77.623 97.444 Q 92.612 86.831 111.69 97.952 C 119.243 82.315 135.177 69.892 153.416 62.624 C 172.464 47.6 212.274 37.994 242.562 45.76 C 276.508 45.761 299.055 56.259 311.715 69.144 L 311.708 68.962 C 340.962 88.658 349.275 112.241 341.058 121.384 Q 348.035 118.781 349.195 124.111 C 350.617 130.65 336.972 127.977 346.779 137.496 Q 340.801 135.169 342.523 130.631 C 344.246 126.093 349.432 128.02 348.512 124.195 Q 347.528 120.104 340.39 122.062 C 339.681 122.717 338.871 123.282 337.964 123.747 C 340.893 125.924 341.324 128.725 339.258 132.151 L 340.964 140.883 C 343.052 141.22 345.645 141.154 348.021 141.081 Q 344.014 142.507 341.276 142.48 L 342.577 149.14 Z " fill="rgb(255,255,255)"/></g></svg>